# xmcd
#
# Track frame offsets: 
#        150
#        16567
#        37650
#        55773
#        69236
#        90054
#        109570
#        129094
#        144481
#        162612
#        181623
#        196877
#        216567
#        232495
#        258610
#        273838
#        289408
#        301007
#
# Disc length: 4289 seconds
#
# Revision: 0
# Processed by: cddbd v1.5.2PL0 Copyright (c) Steve Scherf et al.
# Submitted via: ExactAudioCopy v1.1
#
DISCID=ed10bf12
DTITLE=Various Artist - Het Beste Uit de Q Top 1000 Editie 2018 - CD 6
DYEAR=2018
DGENRE=Top 40
TTITLE0=Shakira Feat. Wyclef Jean - Hips Don't Lie
TTITLE1=Golden Earring - Twilight Zone
TTITLE2=Take That - Back For Good
TTITLE3=Miss Montreal - Wonderful Days
TTITLE4=Volumia! - Afscheid
TTITLE5=TLC - Waterfalls
TTITLE6=Calum Scott - Dancing On My Own
TTITLE7=The Bangles - Walk Like An Egyptian
TTITLE8=Dido - White Flag
TTITLE9=Tears For Fears - Everybody Wants To Rule The World
TTITLE10=Lady Gaga - Million Reasons
TTITLE11=Santana Feat. The Product G&B - Maria Maria
TTITLE12=Alicia Keys - Fallin'
TTITLE13=Spandau Ballet - Through The Barricades
TTITLE14=AJR - Weak
TTITLE15=Danny De Munk - Ik Voel Me Zo Verdomd Alleen
TTITLE16=Wulf - Mind Made Up
TTITLE17=Leonard Cohen - Hallelujah
EXTD=
EXTT0=
EXTT1=
EXTT2=
EXTT3=
EXTT4=
EXTT5=
EXTT6=
EXTT7=
EXTT8=
EXTT9=
EXTT10=
EXTT11=
EXTT12=
EXTT13=
EXTT14=
EXTT15=
EXTT16=
EXTT17=
PLAYORDER=
